
		<svg xmlns="http://www.w3.org/2000/svg" xmlns:xlink="http://www.w3.org/1999/xlink" version="1.1" width="3178.5714285714284" height="1089.2857142857144">
			
			<g transform="scale(8.928571428571429) translate(10, 10)">
				<defs id="SvgjsDefs2414"></defs><g id="SvgjsG2415" featureKey="root" fill="#191a1a"></g><g id="SvgjsG2416" featureKey="symbol1" fill="#21abda" transform="matrix(0.7350000143051147,0,0,0.7350000143051147,56,0)"><g id="SvgjsG2417"><rect xmlns="http://www.w3.org/2000/svg" x="80.742" y="25.013" width="19.258" height="74.987"></rect><rect xmlns="http://www.w3.org/2000/svg" x="53.841" width="19.232" height="100"></rect><rect xmlns="http://www.w3.org/2000/svg" x="26.914" y="50" width="19.258" height="50"></rect><rect xmlns="http://www.w3.org/2000/svg" y="75.013" width="19.245" height="24.987"></rect></g></g><g id="SvgjsG2418" featureKey="text1" fill="#ffffff" transform="matrix(3.5661585330963135,0,0,3.5661585330963135,140.57796414066917,-34.706346751860956)"><path d="M10.2 30.080000000000002 l-8.96 0 l0 -15.02 l8.96 0 c1.98 0 3.58 1.6 3.58 3.56 l0 7.88 c0 1.98 -1.6 3.58 -3.58 3.58 z M3.72 27.6 l6.48 0 c0.6 0 1.1 -0.5 1.1 -1.1 l0 -7.88 c0 -0.6 -0.5 -1.08 -1.1 -1.08 l-6.48 0 l0 10.06 z M19.52 17.540000000000003 c-0.6 0 -1.1 0.48 -1.1 1.08 l0 2.7 l10.06 0 l0 5.18 c0 1.98 -1.6 3.58 -3.58 3.58 l-8.96 0 l0 -2.48 l8.96 0 c0.6 0 1.1 -0.5 1.1 -1.1 l0 -2.7 l-10.06 0 l0 -5.18 c0 -1.96 1.6 -3.56 3.58 -3.56 l8.96 0 l0 2.48 l-8.96 0 z M39.68 15.060000000000002 c1.98 0 3.58 1.6 3.58 3.56 l0 11.46 l-2.48 0 l0 -6.28 l-7.58 0 l0 6.28 l-2.48 0 l0 -11.46 c0 -1.96 1.6 -3.56 3.58 -3.56 l5.38 0 z M33.2 21.32 l7.58 0 l0 -2.7 c0 -0.6 -0.5 -1.08 -1.1 -1.08 l-5.38 0 c-0.6 0 -1.1 0.48 -1.1 1.08 l0 2.7 z"></path></g><g id="SvgjsG2419" featureKey="text3" fill="#ffffff" transform="matrix(0.896424412727356,0,0,0.896424412727356,53.362949800716954,80.896431772125)"><path d="M1.8262 20 l0 -14.111 l5.1074 0 c4.502 0 6.7285 2.832 6.7285 7.0508 c0 4.2285 -2.2266 7.0605 -6.7285 7.0605 l-5.1074 0 z M4.7559 17.4121 l2.0313 0 c2.5977 0 3.7891 -1.6211 3.7891 -4.4727 s-1.1914 -4.4727 -3.7891 -4.4727 l-2.0313 0 l0 8.9453 z M26.75828125 20 l-1.0254 -2.9102 l-5.9277 0 l-1.0254 2.9102 l-2.998 0 l5.1953 -14.111 l3.584 0 l5.1953 14.111 l-2.998 0 z M20.66408125 14.6387 l4.209 0 l-2.0996 -5.9863 z M40.96703125 5.888999999999999 l0 2.5781 l-3.3496 0 l0 11.533 l-2.9004 0 l0 -11.533 l-3.3691 0 l0 -2.5781 l9.6191 0 z M53.535624999999996 20 l-1.0254 -2.9102 l-5.9277 0 l-1.0254 2.9102 l-2.998 0 l5.1953 -14.111 l3.584 0 l5.1953 14.111 l-2.998 0 z M47.441425 14.6387 l4.209 0 l-2.0996 -5.9863 z  M70.351590625 20.19531 c-3.0273 0 -5.3906 -1.4551 -5.8203 -4.1016 l3.0273 -0.69336 c0.19531 1.582 1.3574 2.4023 2.9102 2.4023 c1.1914 0 2.1387 -0.52734 2.1289 -1.7188 c-0.0097656 -1.3281 -1.5723 -1.748 -3.291 -2.2754 c-2.0703 -0.64453 -4.2871 -1.4063 -4.2871 -4.0039 c0 -2.627 2.1484 -4.1113 4.9805 -4.1113 c2.4805 0 4.9805 1.0059 5.5469 3.7109 l-2.832 0.70313 c-0.26367 -1.4063 -1.2109 -2.0215 -2.5391 -2.0215 c-1.1816 0 -2.1875 0.48828 -2.1875 1.6504 c0 1.084 1.3867 1.4453 2.9883 1.9238 c2.1289 0.64453 4.6484 1.4648 4.6484 4.2773 c0 2.998 -2.5098 4.2578 -5.2734 4.2578 z M85.488309375 20.19531 c-4.1504 0 -7.2168 -2.8223 -7.2168 -7.2559 s3.0664 -7.2461 7.2168 -7.2461 c3.1445 0 5.6641 1.6113 6.6699 4.2871 l-2.7344 0.99609 c-0.625 -1.6406 -2.1191 -2.5879 -3.9355 -2.5879 c-2.4316 0 -4.2969 1.6992 -4.2969 4.5508 s1.8652 4.5605 4.2969 4.5605 c1.8164 0 3.3105 -0.95703 3.9355 -2.5977 l2.7344 0.99609 c-1.0059 2.6758 -3.5254 4.2969 -6.6699 4.2969 z M95.468778125 20 l0 -14.111 l2.9297 0 l0 14.111 l-2.9297 0 z M111.133046875 8.467 l-5.2344 0 l0 3.2031 l4.6387 0 l0 2.5488 l-4.6387 0 l0 3.1934 l5.2344 0 l0 2.5879 l-8.1836 0 l0 -14.111 l8.1836 0 l0 2.5781 z M124.697421875 5.888999999999999 l2.9199 0 l0 14.111 l-3.3887 0 l-6.25 -10.088 l0 10.088 l-2.9199 0 l0 -14.111 l3.3496 0 l6.2891 10.029 l0 -10.029 z M138.4277625 20.19531 c-4.1504 0 -7.2168 -2.8223 -7.2168 -7.2559 s3.0664 -7.2461 7.2168 -7.2461 c3.1445 0 5.6641 1.6113 6.6699 4.2871 l-2.7344 0.99609 c-0.625 -1.6406 -2.1191 -2.5879 -3.9355 -2.5879 c-2.4316 0 -4.2969 1.6992 -4.2969 4.5508 s1.8652 4.5605 4.2969 4.5605 c1.8164 0 3.3105 -0.95703 3.9355 -2.5977 l2.7344 0.99609 c-1.0059 2.6758 -3.5254 4.2969 -6.6699 4.2969 z M156.59203125 8.467 l-5.2344 0 l0 3.2031 l4.6387 0 l0 2.5488 l-4.6387 0 l0 3.1934 l5.2344 0 l0 2.5879 l-8.1836 0 l0 -14.111 l8.1836 0 l0 2.5781 z  M176.064921875 20 l-1.0254 -2.9102 l-5.9277 0 l-1.0254 2.9102 l-2.998 0 l5.1953 -14.111 l3.584 0 l5.1953 14.111 l-2.998 0 z M169.970721875 14.6387 l4.209 0 l-2.0996 -5.9863 z M188.339871875 20.19531 c-4.1504 0 -7.2168 -2.8223 -7.2168 -7.2559 s3.0664 -7.2461 7.2168 -7.2461 c3.1445 0 5.6641 1.6113 6.6699 4.2871 l-2.7344 0.99609 c-0.625 -1.6406 -2.1191 -2.5879 -3.9355 -2.5879 c-2.4316 0 -4.2969 1.6992 -4.2969 4.5508 s1.8652 4.5605 4.2969 4.5605 c1.8164 0 3.3105 -0.95703 3.9355 -2.5977 l2.7344 0.99609 c-1.0059 2.6758 -3.5254 4.2969 -6.6699 4.2969 z M207.764140625 20 l-1.0254 -2.9102 l-5.9277 0 l-1.0254 2.9102 l-2.998 0 l5.1953 -14.111 l3.584 0 l5.1953 14.111 l-2.998 0 z M201.669940625 14.6387 l4.209 0 l-2.0996 -5.9863 z M213.789090625 20 l0 -14.111 l5.1074 0 c4.502 0 6.7285 2.832 6.7285 7.0508 c0 4.2285 -2.2266 7.0605 -6.7285 7.0605 l-5.1074 0 z M216.718790625 17.4121 l2.0313 0 c2.5977 0 3.7891 -1.6211 3.7891 -4.4727 s-1.1914 -4.4727 -3.7891 -4.4727 l-2.0313 0 l0 8.9453 z M237.461171875 8.467 l-5.2344 0 l0 3.2031 l4.6387 0 l0 2.5488 l-4.6387 0 l0 3.1934 l5.2344 0 l0 2.5879 l-8.1836 0 l0 -14.111 l8.1836 0 l0 2.5781 z M257.558546875 20 l-2.9199 0 l-0.92773 -10.635 l-3.5742 10.635 l-1.8945 0 l-3.5742 -10.635 l-0.9375 10.635 l-2.9297 0 l1.1816 -14.111 l4.1797 0 l3.0078 8.8574 l3.0469 -8.8574 l4.1797 0 z M272.11903125 5.888999999999999 l-4.6387 7.3535 l0 6.7578 l-2.9395 0 l0 -6.6895 l-4.668 -7.4219 l3.2422 0 l2.8809 4.8047 l2.8906 -4.8047 l3.2324 0 z"></path></g>
			</g>
		</svg>
	